# xmcd
#
# Track frame offsets:
#	150
#	10642
#	22255
#	35650
#	47687
#	60715
#	71850
#	82655
#	93185
#	106082
#	116270
#	125862
#	135262
#	147955
#	159387
#	172652
#	184495
#	193562
#	203785
#	214642
#	223357
#	234922
#	246267
#	257977
#	268482
#	278387
#	291065
#	301440
#	312530
#	324530
#
# Disc length: 4465 seconds
#
# Revision: 2
# Processed by: cddbd v1.5.1PL2 Copyright (c) Steve Scherf et al.
# Submitted via: MusicWizard 7.2.0
#
DISCID=b9116f1e
DTITLE=Adams, Charlie and The Lone Star Playboys - Cattin' Around
DYEAR=2000
DGENRE=Country
TTITLE0=T.T.Boogie
TTITLE1=Black Land Blues
TTITLE2=Stop Your Bawling Baby
TTITLE3=I'm An Army Man
TTITLE4=I Lost An Angel
TTITLE5=Cattin' Around
TTITLE6=Baby Let Me Kindle Your Flame
TTITLE7=I'm A Railroad Daddy
TTITLE8=Before You Say I Do
TTITLE9=Hey Liberace!
TTITLE10=Sugar Diet
TTITLE11=Waltzing With Sin
TTITLE12=My Blue Monday
TTITLE13=You're Getting Too Old
TTITLE14=Gloomy Sunday
TTITLE15=Goodbye Baby
TTITLE16=Jolie Fille (Pretty Girl)
TTITLE17=Hidin' Out
TTITLE18=Plain Horse Sense
TTITLE19=Baby, I Want You So
TTITLE20=I Hope You're Happy Now
TTITLE21=If A Beer Bottle Had A Nipple On It
TTITLE22=You've Wounded The Heart
TTITLE23=Skip One, Skip Two
TTITLE24=That's How I Want It To Be
TTITLE25=I'm Drinking And Thinking Over You
TTITLE26=Pistol Packin' Mama Has Laid Her Pistol Down
TTITLE27=I'm Gonna Put My Foot Down
TTITLE28=Your Memories Make Me Cry
TTITLE29=I'll Remember Your Love In My Prayers
EXTD=
EXTT0=
EXTT1=
EXTT2=
EXTT3=
EXTT4=
EXTT5=
EXTT6=
EXTT7=
EXTT8=
EXTT9=
EXTT10=
EXTT11=
EXTT12=
EXTT13=
EXTT14=
EXTT15=
EXTT16=
EXTT17=
EXTT18=
EXTT19=
EXTT20=
EXTT21=
EXTT22=
EXTT23=
EXTT24=
EXTT25=
EXTT26=
EXTT27=
EXTT28=
EXTT29=
PLAYORDER=
